<svg xmlns="http://www.w3.org/2000/svg" version="1.1" xmlns:xlink="http://www.w3.org/1999/xlink" width="512" height="512" x="0" y="0" viewBox="0 0 496 496" style="enable-background:new 0 0 512 512" xml:space="preserve" class=""><g><path d="M321.824 276.528c-.88-1.424-3.168-2.304-6.608-4.016-3.456-1.68-20.48-10-23.632-11.152-1.376-.496-2.592-.896-3.712-.896-1.472 0-2.784.672-4.08 2.608-2.304 3.44-8.944 11.152-10.944 13.456-1.136 1.312-2.304 1.968-3.712 1.968-1.056 0-2.288-.368-3.76-1.12-3.488-1.68-14.624-5.328-27.824-16.992-10.272-9.104-17.216-20.336-19.248-23.776-2.016-3.408-.208-5.28 1.536-6.976 1.552-1.584 3.44-4.032 5.2-6.032 1.728-2 2.304-3.424 3.44-5.712 1.136-2.288.576-4.304-.304-6.016-.848-1.712-7.76-18.592-10.672-25.472-2.144-5.12-4.304-5.776-6.096-5.776-.608 0-1.184.08-1.696.08-1.984 0-4.272-.304-6.608-.304-2.304 0-6.032.864-9.216 4.32-3.152 3.408-12.112 11.712-12.112 28.592 0 16.896 12.384 33.184 14.144 35.472 1.712 2.304 23.92 38.064 59.056 51.808 20.368 7.968 28.944 9.776 33.776 9.776 3.52 0 5.056-.96 7.728-1.2 6.32-.56 20.448-8.32 23.344-16.32 2.88-8 2.88-14.896 2-16.32z" fill="#000000" opacity="1" data-original="#000000" class=""></path><path d="M362.944 0H133.056C60.928 0 0 60.944 0 133.056v229.872C0 435.056 60.928 496 133.056 496h229.888C435.056 496 496 435.056 496 362.912V133.056C496 60.944 435.072 0 362.944 0zM464 362.912c0 54.784-46.272 101.072-101.056 101.072H133.056C78.288 463.984 32 417.712 32 362.912V133.056C32 78.288 78.288 32 133.056 32h229.888C417.712 32 464 78.272 464 133.056v229.856z" fill="#000000" opacity="1" data-original="#000000" class=""></path><path d="M250.608 88.32c-86.592 0-157.04 69.968-157.04 155.984 0 25.936 6.448 51.36 18.736 73.968l-23.12 68.256a16.003 16.003 0 0 0 3.728 16.336c3.056 3.136 7.2 4.8 11.424 4.8 1.616 0 3.248-.24 4.848-.752l71.76-22.784c21.52 10.56 45.456 16.128 69.664 16.128 86.608 0 157.072-69.952 157.072-155.952 0-86.016-70.464-155.984-157.072-155.984zm-.032 279.952c-21.184 0-42.096-5.328-60.464-15.424a16.054 16.054 0 0 0-12.56-1.216L129.6 366.848l15.296-45.12c1.52-4.48.976-9.424-1.488-13.472-11.696-19.2-17.872-41.312-17.872-63.936 0-68.352 56.096-123.984 125.04-123.984 68.96 0 125.072 55.632 125.072 123.984 0 68.336-56.096 123.952-125.072 123.952z" fill="#000000" opacity="1" data-original="#000000" class=""></path></g></svg>